<svg xmlns="http://www.w3.org/2000/svg" width="12.048" height="16.774" viewBox="0 0 12.048 16.774">
  <path id="lupa" d="M-2072.016-8646.227a.772.772,0,0,1-.772-.772v-4.046a5.531,5.531,0,0,1-4.531-5.432,5.531,5.531,0,0,1,5.524-5.524,5.531,5.531,0,0,1,5.524,5.524,5.53,5.53,0,0,1-4.53,5.432V-8647a.772.772,0,0,1-.772.772Zm-4.015-10.25a4.242,4.242,0,0,0,4.237,4.236,4.242,4.242,0,0,0,4.237-4.236,4.242,4.242,0,0,0-4.237-4.237A4.242,4.242,0,0,0-2076.031-8656.477Z" transform="translate(2077.819 8662.501)" fill="#6e6e6e" stroke="rgba(0,0,0,0)" stroke-width="1"/>
</svg>
